<svg width="1448" height="524" viewBox="0 0 1448 524" fill="none" xmlns="http://www.w3.org/2000/svg">
<path d="M633.017 401.2C590.217 401.2 549.417 380.8 549.417 330.4L585.017 330C585.017 354.8 606.217 368.4 633.417 368.4C659.417 368.4 679.417 356.8 679.417 336.8C679.417 323.2 669.817 316.4 651.417 311.6L614.217 302.4C576.617 293.2 558.217 274.8 558.217 245.6C558.217 202.4 598.217 183.6 637.417 183.6C675.817 183.6 715.417 202 715.417 249.6H679.417C679.417 228.4 660.217 216.4 635.417 216.4C613.017 216.4 595.417 226.4 595.417 244.8C595.417 257.6 604.217 264.8 625.417 270.4L665.017 280.4C699.417 288.8 716.617 307.6 716.617 335.6C716.617 377.2 680.217 401.2 633.017 401.2ZM751.688 396V188.8H790.888V396H751.688ZM771.288 157.2C756.488 157.2 745.288 148 744.888 131.6C745.288 116 756.488 106.8 771.288 106.8C785.688 106.8 796.888 116 796.888 131.6C796.888 148 785.688 157.2 771.288 157.2ZM842.126 396V188.8H881.326V227.2H890.526C900.126 201.6 922.126 183.6 952.926 183.6C993.326 183.6 1024.13 215.6 1024.13 270.4V396H984.526V278C984.526 241.6 966.526 221.6 937.726 221.6C902.526 221.6 881.326 249.6 881.326 287.2V396H842.126ZM1126.39 401.2C1089.19 401.2 1061.19 380 1061.19 342.4C1061.19 303.6 1089.99 284.8 1131.19 280.4L1172.39 275.2C1192.79 272.4 1200.79 267.6 1200.79 253.2C1200.79 231.6 1183.19 218.8 1155.19 218.8C1123.99 218.8 1104.39 234 1103.59 258.4H1063.59C1064.79 210 1104.39 183.6 1157.19 183.6C1209.59 183.6 1238.79 210 1238.79 262V396H1200.79V358.8H1191.99C1181.99 384.4 1159.59 401.2 1126.39 401.2ZM1139.59 369.2C1171.99 369.2 1200.79 347.6 1200.79 305.6V286.4H1191.99C1187.59 297.6 1182.39 300.4 1167.99 303.2L1141.59 307.6C1116.79 312 1103.19 320 1103.19 339.2C1103.19 358.4 1117.19 369.2 1139.59 369.2ZM1349.84 401.2C1307.04 401.2 1266.24 380.8 1266.24 330.4L1301.84 330C1301.84 354.8 1323.04 368.4 1350.24 368.4C1376.24 368.4 1396.24 356.8 1396.24 336.8C1396.24 323.2 1386.64 316.4 1368.24 311.6L1331.04 302.4C1293.44 293.2 1275.04 274.8 1275.04 245.6C1275.04 202.4 1315.04 183.6 1354.24 183.6C1392.64 183.6 1432.24 202 1432.24 249.6H1396.24C1396.24 228.4 1377.04 216.4 1352.24 216.4C1329.84 216.4 1312.24 226.4 1312.24 244.8C1312.24 257.6 1321.04 264.8 1342.24 270.4L1381.84 280.4C1416.24 288.8 1433.44 307.6 1433.44 335.6C1433.44 377.2 1397.04 401.2 1349.84 401.2Z" fill="#1C1C1C"/>
<path d="M121.163 240.205C171.757 189.611 251.576 186.054 306.279 229.533L110.492 425.32C67.0129 370.617 70.5696 290.799 121.163 240.205Z" stroke="#E97203" stroke-width="32"/>
<path d="M444.837 344.179C495.43 293.585 498.988 213.767 455.508 159.064L259.722 354.85C314.425 398.329 394.243 394.773 444.837 344.179Z" stroke="#E97203" stroke-width="32"/>
</svg>
