<svg width="177" height="64" viewBox="0 0 177 64" fill="none" xmlns="http://www.w3.org/2000/svg">
<path d="M78.9046 49.0022C73.6728 49.0022 68.6855 46.5106 68.6855 40.3548L73.0372 40.306C73.0372 43.335 75.6286 44.9961 78.9535 44.9961C82.1317 44.9961 84.5764 43.5793 84.5764 41.1365C84.5764 39.4755 83.403 38.6449 81.1538 38.0587L76.6065 36.935C72.0104 35.8113 69.7612 33.564 69.7612 29.9976C69.7612 24.7213 74.6507 22.4251 79.4425 22.4251C84.1364 22.4251 88.977 24.6724 88.977 30.4861H84.5764C84.5764 27.8968 82.2295 26.4312 79.198 26.4312C76.4599 26.4312 74.3085 27.6526 74.3085 29.8999C74.3085 31.4632 75.3842 32.3426 77.9756 33.0266L82.8162 34.248C87.0212 35.2739 89.1237 37.5701 89.1237 40.99C89.1237 46.0709 84.6742 49.0022 78.9046 49.0022ZM93.4107 48.3671V23.0602H98.2024V48.3671H93.4107ZM95.8065 19.2006C93.9974 19.2006 92.6283 18.077 92.5794 16.0739C92.6283 14.1686 93.9974 13.0449 95.8065 13.0449C97.5667 13.0449 98.9358 14.1686 98.9358 16.0739C98.9358 18.077 97.5667 19.2006 95.8065 19.2006ZM104.466 48.3671V23.0602H109.257V27.7503H110.382C111.555 24.6235 114.245 22.4251 118.01 22.4251C122.948 22.4251 126.713 26.3335 126.713 33.0266V48.3671H121.872V33.9548C121.872 29.509 119.672 27.0663 116.152 27.0663C111.849 27.0663 109.257 30.4861 109.257 35.0785V48.3671H104.466ZM139.213 49.0022C134.666 49.0022 131.243 46.4129 131.243 41.8205C131.243 37.0816 134.764 34.7854 139.8 34.248L144.836 33.6129C147.33 33.2709 148.308 32.6846 148.308 30.9258C148.308 28.2877 146.156 26.7243 142.734 26.7243C138.92 26.7243 136.524 28.5808 136.426 31.561H131.537C131.683 25.6495 136.524 22.4251 142.978 22.4251C149.383 22.4251 152.953 25.6495 152.953 32.0006V48.3671H148.308V43.8235H147.232C146.01 46.9503 143.272 49.0022 139.213 49.0022ZM140.827 45.0938C144.787 45.0938 148.308 42.4556 148.308 37.3258V34.9808H147.232C146.694 36.3487 146.059 36.6907 144.298 37.0327L141.071 37.5701C138.04 38.1075 136.377 39.0846 136.377 41.4297C136.377 43.7747 138.089 45.0938 140.827 45.0938ZM166.527 49.0022C161.296 49.0022 156.308 46.5106 156.308 40.3548L160.66 40.306C160.66 43.335 163.251 44.9961 166.576 44.9961C169.754 44.9961 172.199 43.5793 172.199 41.1365C172.199 39.4755 171.026 38.6449 168.776 38.0587L164.229 36.935C159.633 35.8113 157.384 33.564 157.384 29.9976C157.384 24.7213 162.273 22.4251 167.065 22.4251C171.759 22.4251 176.6 24.6724 176.6 30.4861H172.199C172.199 27.8968 169.852 26.4312 166.821 26.4312C164.083 26.4312 161.931 27.6526 161.931 29.8999C161.931 31.4632 163.007 32.3426 165.598 33.0266L170.439 34.248C174.644 35.2739 176.746 37.5701 176.746 40.99C176.746 46.0709 172.297 49.0022 166.527 49.0022Z" fill="white"/>
<path d="M14.8108 29.3376C20.9953 23.1582 30.7522 22.7237 37.439 28.0341L13.5064 51.9471C8.19166 45.2658 8.62642 35.517 14.8108 29.3376Z" stroke="#E97203" stroke-width="3.5" stroke-linejoin="round"/>
<path d="M54.3756 42.0372C60.5599 35.8578 60.9949 26.109 55.68 19.4277L31.7476 43.3405C38.4343 48.6509 48.1911 48.2166 54.3756 42.0372Z" stroke="#E97203" stroke-width="3.5" stroke-linejoin="round"/>
</svg>
