<svg width="3030" height="3030" viewBox="0 0 3030 3030" fill="none" xmlns="http://www.w3.org/2000/svg">
<path d="M1950 2218.33C1923.68 2218.1 1898.27 2219.17 1873.06 2217.34C1839 2214.87 1805.01 2210.83 1771.15 2206.28C1724.28 2199.98 1678.45 2188.7 1633.2 2174.94C1587.6 2161.06 1543.2 2144.05 1500.12 2123.73C1438.51 2094.66 1380.32 2059.81 1325.92 2018.74C1291.1 1992.45 1257.76 1964.42 1226.93 1933.47C1224.13 1930.66 1221.13 1928.06 1217.43 1924.62C1689.99 1451.69 2162.28 979.015 2634.22 506.696C2644.41 516.566 2654.91 525.398 2663.81 535.632C2684.3 559.223 2704.67 582.983 2723.9 607.603C2758.41 651.775 2788.08 699.125 2814.2 748.753C2838.74 795.393 2859.38 843.675 2876.24 893.556C2895.56 950.696 2909.96 1009.09 2918.08 1068.88C2921.65 1095.18 2923.87 1121.67 2926.3 1148.11C2930.13 1189.65 2929.3 1231.33 2927.36 1272.86C2925.02 1322.99 2918.1 1372.7 2907.72 1421.85C2896.01 1477.29 2879.94 1531.42 2859.14 1584.14C2834.88 1645.63 2804.88 1704.16 2769.02 1759.7C2740.62 1803.69 2708.99 1845.25 2674.07 1884.24C2619.88 1944.76 2559.31 1998.08 2492.25 2044.02C2453.18 2070.78 2412.5 2094.78 2370.03 2115.68C2295.65 2152.27 2217.97 2179.38 2136.79 2196.48C2097.08 2204.84 2057.15 2211.51 2016.65 2214.35C1994.78 2215.89 1972.88 2217.02 1950 2218.33Z" fill="#E97203"/>
<path d="M557.348 979.277C582.223 964.358 606.262 949.43 630.829 935.428C675.175 910.153 721.897 889.94 769.817 872.546C819.291 854.588 869.901 840.386 921.714 831.187C953.717 825.505 986.086 821.794 1018.36 817.738C1059.08 812.619 1100.06 813.199 1140.97 813.82C1173.18 814.308 1205.24 817.5 1237.24 821.439C1277.56 826.402 1317.35 833.917 1356.67 843.881C1457.76 869.495 1552.53 909.953 1641.03 965.191C1691.15 996.474 1737.89 1032.18 1781.88 1071.51C1794.5 1082.8 1806.4 1094.89 1819.52 1107.47C1346.97 1580.34 874.71 2052.93 401.785 2526.17C397.673 2522.11 393.812 2518.53 390.219 2514.7C360.838 2483.39 332.542 2451.17 306.921 2416.66C275.111 2373.81 246.753 2328.84 221.949 2281.56C176.806 2195.51 145.294 2104.7 126.593 2009.46C119.362 1972.64 114.618 1935.44 111.41 1897.98C108.022 1858.42 107.369 1818.83 108.621 1779.3C110.177 1730.16 115.824 1681.32 124.821 1632.91C133.157 1588.05 144.361 1543.93 158.68 1500.64C171.852 1460.82 187.587 1422 205.645 1384.1C227.456 1338.32 252.61 1294.51 281.084 1252.59C307.298 1213.99 336.242 1177.57 367.501 1142.91C417.657 1087.3 473.545 1038.24 534.576 994.952C541.895 989.761 549.355 984.769 557.348 979.277Z" fill="#E97203"/>
</svg>
