<svg width="16" height="16" viewBox="0 0 16 16" fill="none" xmlns="http://www.w3.org/2000/svg">
<path d="M11.7091 10.0752C11.7091 9.36663 11.2966 8.71492 10.5478 8.24111C10.3426 8.11214 10.1256 8.00305 9.9006 7.91441C11.6597 6.86498 12.2353 4.5883 11.1858 2.82859C10.1358 1.06888 7.85914 0.493318 6.10001 1.5428C4.34088 2.59229 3.76532 4.86891 4.81479 6.62862C5.13013 7.15703 5.5716 7.59851 6.10001 7.91384C5.87444 8.00248 5.65796 8.11214 5.45285 8.24055C4.70399 8.71498 4.29148 9.36612 4.29148 10.0746C4.29148 10.783 4.70398 11.4348 5.45285 11.9086C5.52558 11.9546 5.60114 11.9978 5.67842 12.0393C5.63013 12.0552 5.5824 12.0717 5.53581 12.0887C4.5074 12.466 4.29092 12.9813 4.29092 13.3467C4.29092 13.7126 4.50683 14.2279 5.53581 14.6046C6.33012 14.8688 7.16315 14.9967 7.99995 14.983C8.83689 14.9972 9.67035 14.8694 10.4641 14.6046C11.4925 14.2274 11.709 13.712 11.709 13.3467C11.709 12.9808 11.4931 12.4654 10.4641 12.0887C10.4175 12.0717 10.3704 12.0552 10.3215 12.0393C10.3988 11.9978 10.4743 11.9541 10.5471 11.9086C11.2965 11.4348 11.7091 10.7836 11.7091 10.0752ZM5.16367 4.7297C5.16367 3.16315 6.43356 1.89333 8.00004 1.89333C9.56651 1.89333 10.8364 3.16322 10.8364 4.7297C10.8364 6.29624 9.56651 7.56606 8.00004 7.56606C6.43407 7.56379 5.16542 6.29503 5.16367 4.7297ZM10.8364 13.3479C10.8364 13.3797 10.7199 13.5831 10.1642 13.7865C9.46594 14.0138 8.7347 14.1234 8.00002 14.1115C7.26593 14.124 6.53471 14.0138 5.8358 13.7865C5.28012 13.5831 5.16364 13.3791 5.16364 13.3479C5.16364 13.3161 5.28012 13.1126 5.8358 12.9092C6.5341 12.682 7.26535 12.5723 8.00002 12.5842C8.73412 12.5717 9.46533 12.682 10.1642 12.9092C10.7199 13.1126 10.8364 13.3161 10.8364 13.3479ZM8.00004 11.7115C6.46258 11.7115 5.16367 10.9621 5.16367 10.0752C5.16367 9.18821 6.46254 8.43879 8.00004 8.43879C9.53754 8.43879 10.8364 9.18821 10.8364 10.0752C10.8364 10.9621 9.53754 11.7115 8.00004 11.7115Z" fill="#E97203"/>
</svg>
