<svg width="16" height="16" viewBox="0 0 16 16" fill="none" xmlns="http://www.w3.org/2000/svg">
<path d="M11.2726 1.01855H4.72716C2.67887 1.01855 1.01807 2.67935 1.01807 4.72765V11.2731C1.02034 13.3208 2.67945 14.9799 4.72716 14.9822H11.2726C13.3203 14.9799 14.9794 13.3208 14.9817 11.2731V4.72765C14.9794 2.67994 13.3203 1.02088 11.2726 1.01855ZM4.72716 14.1095C3.16119 14.1078 1.89254 12.839 1.89079 11.2731V4.72765C1.89079 3.1611 3.16068 1.89128 4.72716 1.89128H4.73738C6.30844 1.90946 7.5704 3.19185 7.56357 4.76285V11.2731C7.56186 12.8391 6.29306 14.1077 4.72716 14.1095ZM7.12425 14.1015C7.95607 13.3975 8.43674 12.3629 8.43617 11.2731V4.76289C8.43731 3.66005 7.95322 2.61235 7.11231 1.89816C8.59522 2.00725 9.74358 3.24078 9.74532 4.72769V11.2731C9.74362 12.7555 8.60215 13.9873 7.12425 14.1015ZM9.30607 14.1015C10.1385 13.3975 10.6186 12.3629 10.618 11.2731V4.72769C10.618 3.63792 10.1379 2.60333 9.3055 1.89933C10.7833 2.01353 11.9254 3.24535 11.927 4.72769V11.2731C11.9253 12.7555 10.7838 13.9873 9.30607 14.1015ZM14.109 11.2731C14.1073 12.7555 12.9652 13.9873 11.4874 14.1015C12.3198 13.3975 12.7999 12.3629 12.7999 11.2731V4.72769C12.7999 3.63792 12.3198 2.60333 11.4874 1.89933C12.9653 2.01353 14.1074 3.24535 14.109 4.72769V11.2731Z" fill="#E97203"/>
</svg>
