<svg width="16" height="16" viewBox="0 0 16 16" fill="none" xmlns="http://www.w3.org/2000/svg">
<path d="M14.5453 1.01855C11.63 1.02083 9.02141 2.83106 7.99988 5.56168C6.9783 2.83106 4.36978 1.02074 1.45443 1.01855C1.21353 1.01855 1.01807 1.21402 1.01807 1.45492V14.5458C1.01807 14.7867 1.21353 14.9822 1.45443 14.9822C4.36978 14.9799 6.97836 13.1697 7.99988 10.4391C9.02147 13.1697 11.63 14.98 14.5453 14.9822C14.7862 14.9822 14.9817 14.7867 14.9817 14.5458V1.45492C14.9817 1.21402 14.7862 1.01855 14.5453 1.01855ZM1.89079 14.0942V1.9067C5.25618 2.14647 7.79028 5.06859 7.55043 8.43397C7.33508 11.4664 4.92265 13.8783 1.89079 14.0942ZM14.109 14.0942C10.7436 13.8544 8.20948 10.9323 8.44934 7.56692C8.66468 4.53448 11.0771 2.12255 14.109 1.9067V14.0942Z" fill="#E97203"/>
</svg>
